<?xml version="1.0" encoding="iso-8859-1"?>
<!-- Generator: Adobe Illustrator 20.1.0, SVG Export Plug-In . SVG Version: 6.00 Build 0)  -->
<svg version="1.1" id="Calque_1" xmlns="http://www.w3.org/2000/svg" xmlns:xlink="http://www.w3.org/1999/xlink" x="0px" y="0px"
	 viewBox="0 0 208 211.489" style="enable-background:new 0 0 208 211.489;" xml:space="preserve">
<g>
	<g>
		<circle style="fill:#8FBC25;" cx="102.221" cy="107.295" r="75.257"/>
	</g>
</g>
<g>
	<g>
		<g>
			<g>
				<path style="fill:#FFFFFF;" d="M149.953,121.883c-9.493-4.911-18.502-8.158-26.928-9.958
					c5.475-21.358,2.771-16.895,10.896-37.391c-11.142-5.015-15.536,4.721-16.873,8.556c-3.472,9.953-1.746,6.473-6.193,22.798
					c-0.001,0.094-0.002,0.141-0.003,0.234c-0.487,1.631-0.727,2.448-1.202,4.085c-18.885-0.924-43.263,6.665-50.002,25.832
					c-4.284,12.185,7.077,20.501,18.187,21.314c13.659,1,26.744-6.843,33.482-18.696c3.636-6.397,6.152-10.783,8.961-18.645
					c17.263,3.302,22.385,18.486,22.385,18.486C155.316,134.011,154.172,124.86,149.953,121.883z M101.688,132.127
					c-4.491,9.761-14.185,14.732-20.876,14.599c-0.617-0.012-1.251-0.064-1.884-0.154c-11.549-1.646-9.719-6.558-9.284-9.137
					c5.725-13.352,21.706-17.748,35.128-17.199c0.854,0.015,1.281,0.023,2.136,0.039
					C103.433,128.613,101.836,131.804,101.688,132.127z"/>
			</g>
		</g>
	</g>
	<path style="fill:#FFFFFF;" d="M127.257,55.849c-2.533,0.274-9.561,1.893-16.572,5.05c-5.795,2.61-13.405,3.716-22.217,0.425
		c-1.154-0.431-1.137,8.676,6.264,11.745c15.947,6.947,22.155-3.106,31.986-3.923c3.419-0.125,6.64,0.429,9.261,1.933
		C139.933,68.077,141.471,54.314,127.257,55.849z"/>
</g>
</svg>
