<?xml version="1.0" encoding="iso-8859-1"?>
<!-- Generator: Adobe Illustrator 20.1.0, SVG Export Plug-In . SVG Version: 6.00 Build 0)  -->
<svg version="1.1" id="Calque_1" xmlns="http://www.w3.org/2000/svg" xmlns:xlink="http://www.w3.org/1999/xlink" x="0px" y="0px"
	 viewBox="0 0 98 42.919" style="enable-background:new 0 0 98 42.919;" xml:space="preserve">
<path style="fill:white;" d="M30.014,28.214c-1.868-1.188-3.667-2.023-5.372-2.55c1.522-4.305,2.442-7.547,4.496-11.626
	c-2.206-1.24-3.257,0.705-3.638,1.455c-1.578,3.108-2.039,5.416-3.257,8.702c-0.002,0.019-0.003,0.029-0.005,0.048
	c-0.13,0.327-0.195,0.492-0.323,0.82c-3.879-0.538-9.047,0.579-10.79,4.409c-1.108,2.435,1.083,4.359,3.36,4.732
	c2.799,0.458,5.643-0.92,7.251-3.241c0.868-1.253,1.468-2.111,2.192-3.682c3.5,0.999,4.278,4.225,4.278,4.225
	C30.898,30.814,30.83,28.906,30.014,28.214z M19.869,29.439c-1.106,1.931-3.197,2.778-4.575,2.628
	c-0.127-0.014-0.257-0.036-0.386-0.067c-2.352-0.552-1.884-1.532-1.747-2.056c1.427-2.649,4.804-3.262,7.563-2.902
	c0.176,0.019,0.264,0.028,0.44,0.047C20.294,28.746,19.906,29.375,19.869,29.439z"/>
<path style="fill:white;" d="M20.779,12.966c3.162,1.726,4.628-0.233,6.671-0.221c0.708,0.037,1.362,0.211,1.875,0.569
	c0.871-0.546,1.441-3.357-1.519-3.302c-0.528,0.01-2.007,0.215-3.512,0.737c-1.243,0.432-2.834,0.52-4.591-0.321
	C19.473,10.318,18.849,11.918,20.779,12.966z"/>
<path style="fill:white;" d="M71.776,18.369c0.107,0.179,0.298,0.271,0.525,0.329c0.807,0.314,1.926-0.488,1.793-1.346
	l-0.064-0.184c-0.46-0.795-1.978-0.741-2.44,0.318c-0.048,0.11-0.054,0.279-0.033,0.377C71.6,18.063,71.641,18.204,71.776,18.369z"
	/>
<path style="fill:white;" d="M82.314,10.633c-0.082-0.168-0.203-0.307-0.365-0.417c-0.161-0.109-0.372-0.172-0.635-0.188
	c-0.361-0.022-0.726,0.058-1.096,0.241c-0.37,0.182-0.733,0.443-1.088,0.78c-0.356,0.338-0.704,0.737-1.043,1.2
	c-0.339,0.463-0.661,0.963-0.965,1.501c-0.304,0.538-0.625,1.258-0.963,2.158c-0.338,0.901-0.507,1.351-0.507,1.351
	s-0.127,0.453-0.381,1.361c-0.254,0.906-0.408,1.635-0.462,2.185c-0.063,0.64-0.068,1.253-0.015,1.841
	c0.027,0.3,0.068,0.582,0.12,0.847c-0.199,0.147-0.372,0.264-0.591,0.386c-0.28,0.156-0.55,0.336-0.775,0.336
	c-0.193,0-0.397-0.124-0.453-0.29c-0.057-0.165-0.097-0.287-0.088-0.568c0.01-0.282,0.616-3.441,0.609-3.578
	c-0.008-0.162-0.06-0.287-0.156-0.376c-0.096-0.089-0.273-0.123-0.531-0.102c-0.141,0.012-0.298,0.042-0.471,0.091
	c-0.173,0.048-0.339,0.116-0.498,0.201c-0.16,0.086-0.3,0.19-0.424,0.314c-0.135,0.137-0.214,0.285-0.238,0.446
	c-0.009,0.044-0.328,1.47-0.534,2.496c-0.615,0.527-1.554,1.406-1.971,1.406c-0.217,0-0.212-0.521-0.095-1.187
	c0.084-0.475,0.165-0.886,0.263-1.268c-0.011-0.037-0.016-0.08-0.008-0.136c0.084-0.611-0.073-0.917-0.751-0.94
	c-0.422-0.015-0.673,0.29-0.801,0.522c-0.16,0.584-0.282,1.137-0.349,1.474c-0.564,1.23-1.432,1.722-2.098,1.722
	c-0.651,0-0.728-0.55-0.628-1.114c0.291-1.648,1.554-2.737,2.813-3.195c0.572-0.179,1.06-0.119,1.214-0.092l0.055,0.01
	c0,0,0.398-0.843-0.606-1.007c-0.294-0.058-0.578-0.087-0.853-0.087c-1.201,0-2.376,0.753-3.182,1.548
	c-0.896,0.897-1.441,2.098-1.635,3.198c-0.023,0.129-0.028,0.249-0.034,0.369l-0.035-0.048l-0.049,0.034
	c-0.413,0.289-0.736,0.435-0.96,0.432c-0.351-0.003-0.344-0.387-0.342-0.431c0.008-0.175,0.769-2.248,1.248-3.416
	c0.205-0.501,0.211-0.895,0.018-1.172c-0.209-0.3-0.64-0.455-1.281-0.461c-1.137-0.011-2.747,2.143-2.763,2.165
	c-0.065,0.087-0.118,0.132-0.156,0.15c0.289-1.018,0.29-1.714,0.003-2.071c-0.137-0.17-0.338-0.258-0.597-0.261h-0.029
	c-0.799,0.012-1.126,0.09-1.62,0.558c-0.281,0.266-1.089,1.176-1.79,1.976c0.207-0.655,0.343-1.095,0.405-1.31
	c0.145-0.503,0.123-0.875-0.065-1.107c-0.141-0.175-0.371-0.265-0.683-0.268c-0.65-0.006-1.649,0.296-1.691,0.309l-0.101,0.031
	l0.047,0.068c0.466,0.674-0.128,2.484-0.621,3.961c-0.693,0.418-1.348,0.792-1.6,0.874c-0.329,0.09-1.404,0.597-1.627-0.358
	c-0.253-1.085,0.247-1.431,1.53-2.511c0.283-0.238,0.657-0.552,1.072-1.133c0.646-0.897,0.203-2.051-1.44-1.85
	c-1.643,0.202-3.078,2.385-3.096,2.41c-0.073,0.097-0.133,0.148-0.175,0.168c0.014-0.048,0.017-0.094,0.037-0.139
	c0.122-0.269,0.102-0.243,0.181-0.381l0.388-0.58c0.068-0.088,0.209-0.275,0.42-0.56c0.212-0.286,0.46-0.637,0.743-1.052
	c0.284-0.416,0.584-0.881,0.902-1.397c0.318-0.516,0.62-1.047,0.906-1.594c0.286-0.548,0.537-1.094,0.753-1.639
	c0.216-0.545,0.361-1.055,0.436-1.53c0.042-0.265,0.056-0.511,0.043-0.738c-0.013-0.227-0.066-0.423-0.159-0.587
	c-0.093-0.165-0.232-0.294-0.418-0.388c-0.186-0.094-0.433-0.143-0.742-0.148c-0.394-0.006-0.77,0.064-1.127,0.208
	c-0.358,0.145-0.695,0.344-1.014,0.597c-0.32,0.253-0.618,0.55-0.896,0.889c-0.278,0.34-0.537,0.698-0.775,1.074
	c-0.238,0.377-0.451,0.767-0.637,1.171c-0.187,0.404-0.366,0.789-0.535,1.155c-0.17,0.367-0.313,0.713-0.43,1.037
	c-0.116,0.325-0.215,0.599-0.294,0.823c-0.218,0.652-0.422,1.324-0.612,2.016c-0.191,0.693-0.36,1.355-0.508,1.99
	c-0.148,0.633-0.275,1.215-0.383,1.744c-0.022,0.109-0.038,0.195-0.057,0.295c-0.15,0.134-0.288,0.266-0.466,0.405
	c-0.282,0.221-0.574,0.415-0.879,0.586c-0.305,0.172-0.532,0.198-0.923,0.266c-1.207,0.212-1.705-0.863-1.78-1.234
	c-0.15-0.924,0.416-1.772,1.218-2.323c0.706-0.485,1.522-0.605,2.263-0.144c0.398-0.268,0.462-0.606,0.383-0.923
	c-0.099-0.398-0.532-0.493-0.978-0.513c-2.42-0.107-4.695,1.302-4.878,3.838c-0.602,0.525-1.385,1.22-1.755,1.22
	c-0.217,0-0.212-0.521-0.095-1.187c0.084-0.475,0.165-0.886,0.263-1.268c-0.011-0.037-0.016-0.08-0.008-0.136
	c0.084-0.611-0.073-0.917-0.751-0.94c-0.422-0.015-0.673,0.29-0.801,0.522c-0.16,0.584-0.282,1.137-0.349,1.474
	c-0.564,1.23-1.432,1.722-2.098,1.722c-0.651,0-0.728-0.55-0.628-1.114c0.291-1.648,1.554-2.737,2.813-3.195
	c0.572-0.179,1.06-0.119,1.214-0.092l0.055,0.01c0,0,0.398-0.843-0.606-1.007c-0.294-0.058-0.578-0.087-0.853-0.087
	c-1.201,0-2.376,0.753-3.182,1.548c-0.896,0.897-1.441,2.098-1.635,3.198c-0.245,1.389,0.523,2.286,1.869,2.286
	c1.331,0,2.188-0.593,2.84-1.418c0.019,0.796,0.24,1.346,0.79,1.346c1.005,0,2.253-0.724,3.055-1.578
	c0.034,0.095,0.057,0.2,0.103,0.284c0.06,0.138,0.132,0.267,0.221,0.384c0.192,0.255,0.455,0.453,0.792,0.603
	c0.337,0.15,0.753,0.228,1.238,0.25c0.276,0.013,0.553-0.006,0.827-0.057c0.274-0.051,0.537-0.12,0.789-0.21
	c0.251-0.09,0.49-0.196,0.718-0.32c0.227-0.124,0.437-0.255,0.629-0.393c0.119-0.085,0.231-0.188,0.346-0.282
	c-0.004,0.049-0.014,0.105-0.017,0.153c-0.013,0.217,0.007,0.409,0.061,0.573c0.053,0.166,0.148,0.298,0.284,0.397
	c0.137,0.098,0.335,0.149,0.596,0.153c0.194,0.003,0.37-0.036,0.528-0.116c0.147-0.075,0.302-0.204,0.465-0.38l-0.005,0.018
	c0.01-0.016,0.021-0.03,0.031-0.046c1.568-2.581,3.076-4.19,3.662-4.644c0.086-0.067,0.177-0.117,0.235-0.136
	c0.02-0.007,0.038-0.01,0.055-0.01c0.154,0.002,0.202,0.309,0.134,0.558c-0.034,0.123-0.331,0.371-0.556,0.625
	c-0.319,0.36-0.729,0.856-0.949,1.51c-0.439,1.095-0.052,1.77,0.405,2.136c0.585,0.447,1.393,0.423,1.393,0.423
	c0.401,0.001,0.939-0.034,1.378-0.257c0.577-0.293,0.966-0.556,1.217-0.752c-0.011,0.23,0.02,0.436,0.141,0.587
	c0.251,0.312,0.733,0.382,1.094,0.385c0.281,0.003,0.497-0.034,0.506-0.035l0.055-0.009l0.016-0.048c0,0,0.205-0.632,0.475-1.471
	c0.528-0.757,1.789-2.541,2.242-3.007c0.256-0.263,0.395-0.301,0.456-0.301c0.119,0.001,0.145,0.148,0.132,0.197
	c-0.036,0.137-0.714,2.384-1.144,3.535c-0.102,0.273-0.09,0.5,0.037,0.673c0.217,0.298,0.689,0.335,0.882,0.337
	c0.329,0.003,0.691-0.08,0.746-0.242c0.707-1.658,2.438-3.698,2.892-4.12c0.095-0.089,0.177-0.135,0.236-0.135
	c0.139,0.001,0.186,0.275,0.127,0.498c-0.07,0.266-0.352,1.13-0.678,2.129L58.54,24.62c-0.097,0.298-0.071,0.546,0.076,0.737
	c0.207,0.269,0.669,0.42,1.299,0.426c0.552,0.003,1.085-0.101,1.332-0.209c0.399-0.174,0.754-0.434,0.986-0.621
	c0.266,0.65,0.891,1.036,1.768,1.036c1.331,0,2.188-0.593,2.84-1.418c0.019,0.796,0.24,1.346,0.79,1.346
	c0.983,0,2.202-0.693,3.005-1.522c0.01,0.07,0.003,0.153,0.018,0.219c0.051,0.234,0.142,0.432,0.274,0.594s0.307,0.289,0.525,0.379
	c0.218,0.09,0.49,0.136,0.814,0.136c0.362,0,0.746-0.066,1.154-0.197c0.407-0.131,0.808-0.295,1.202-0.491
	c0.237-0.118,0.445-0.257,0.663-0.388c0.117,0.25,0.245,0.478,0.397,0.657c0.237,0.278,0.508,0.425,0.813,0.444
	c0.198,0.012,0.414,0,0.647-0.036c0.232-0.036,0.472-0.091,0.721-0.161c0.248-0.071,0.496-0.153,0.743-0.247
	c0.248-0.095,0.487-0.191,0.72-0.289c0.475-0.209,0.959-0.452,1.45-0.719c0.001,0,0.003,0,0.004,0
	c0.077-0.044,0.175-0.106,0.175-0.106c0.181-0.184,0.257-0.564,0.17-0.97c-0.11-0.512-0.436-0.87-0.734-0.813
	c0,0-0.077,0.02-0.113,0.043c-0.005,0.003-0.01,0.006-0.015,0.009c-0.387,0.253-0.758,0.48-1.11,0.674
	c-0.167,0.093-0.34,0.182-0.517,0.271c-0.178,0.089-0.351,0.166-0.519,0.233c-0.167,0.066-0.324,0.117-0.471,0.154
	c-0.146,0.036-0.275,0.051-0.385,0.044c-0.045-0.003-0.09-0.038-0.136-0.107c-0.045-0.068-0.084-0.157-0.119-0.271
	c-0.035-0.113-0.061-0.24-0.079-0.379c-0.018-0.14-0.019-0.284-0.005-0.431l0.012-0.119c0.028-0.111,0.062-0.226,0.102-0.343
	c0.04-0.116,0.08-0.226,0.119-0.329c0.039-0.102,0.078-0.198,0.118-0.287c0.04-0.088,0.077-0.159,0.112-0.214
	c0.312-0.492,0.649-0.994,1.01-1.508c0.362-0.513,0.724-1.034,1.084-1.564c0.361-0.53,0.71-1.065,1.048-1.605
	c0.338-0.54,0.641-1.081,0.911-1.621c0.27-0.542,0.495-1.083,0.676-1.623c0.181-0.542,0.297-1.076,0.349-1.605
	c0.021-0.213,0.022-0.424,0.002-0.631C82.447,10.99,82.396,10.802,82.314,10.633z M44.627,19.712
	c-0.061,0.117-0.11,0.212-0.169,0.324l-0.26,0.005c0.108-0.422,0.206-0.839,0.333-1.266c0.497-1.672,1.321-3.863,2.188-5.342
	c0.187-0.319,0.369-0.59,0.543-0.812c0.174-0.222,0.347-0.393,0.521-0.512c0.173-0.119,0.369-0.177,0.584-0.173
	c0.142,0.002,0.197,0.1,0.167,0.295c-0.022,0.14-0.075,0.31-0.161,0.51c-0.085,0.2-0.188,0.415-0.308,0.644
	c-0.12,0.23-0.25,0.469-0.389,0.716c-0.139,0.248-2.065,3.741-2.309,4.203C45.123,18.767,44.876,19.237,44.627,19.712z
	 M80.887,12.922c-0.089,0.198-0.194,0.411-0.316,0.638c-0.122,0.227-0.254,0.463-0.395,0.707s-2.092,3.691-2.34,4.148
	c-0.248,0.458-0.499,0.922-0.752,1.391c-0.028,0.052-0.05,0.094-0.078,0.145l-0.282-0.023c0.103-0.358,0.193-0.71,0.31-1.072
	c0.536-1.668,1.4-3.847,2.275-5.304c0.189-0.314,0.37-0.581,0.542-0.798s0.341-0.382,0.51-0.495c0.167-0.112,0.353-0.163,0.554-0.15
	c0.133,0.008,0.181,0.11,0.144,0.305C81.033,12.554,80.976,12.724,80.887,12.922z"/>
</svg>
